<svg id="Layer_1" data-name="Layer 1" xmlns="http://www.w3.org/2000/svg" viewBox="0 0 350 350">
  <defs>
    <style>
      .cls-1 {
        fill: #252525;
      }

      .cls-2 {
        fill: #e5cf8c;
      }
    </style>
  </defs>
  <title>paw</title>
  <circle class="cls-1" cx="175" cy="175" r="175"/>
  <g>
    <path class="cls-2" d="M252.43,291c-17.73,14.25-38,21.33-60.67,22.23-17.72.7-35.28-.33-52.45-4.7-21.7-5.52-38.54-17.63-47.66-38.66-6.7-15.45-3.11-29.43,10.14-39.73,14.1-10.95,23.92-24.48,28.92-41.77,3.65-12.62,12.44-20.71,25-24.87a97.58,97.58,0,0,0,13.66-6.12c14.21-7.3,28.65-4.35,38.23,8.4A98.43,98.43,0,0,1,217,181.24a84,84,0,0,0,30.09,34.08,92.45,92.45,0,0,1,16.26,13.54,39.05,39.05,0,0,1,10.69,34.36c-.92,5.69-4.9,11.26-8.62,16C261.87,283.75,256.83,287.14,252.43,291Z"/>
    <path class="cls-2" d="M258.1,122.38c3.26-2.55,6.44-5.23,9.81-7.64,13.39-9.58,32.32-5,38.86,10.08A62.27,62.27,0,0,1,312,146.21c.62,13.06.73,26.26-3.35,39-6.43,20.12-24,29.05-44.06,22.19-18.39-6.3-32.82-25.72-33.62-45.24-.55-13.46,7.41-22.55,16.18-31.09,3.32-3.23,7.29-5.8,11-8.67Z"/>
    <path class="cls-2" d="M101.25,137.77a66.2,66.2,0,0,1,13,46.73c-1.57,17.29-23.41,41.27-40.26,45.69-12.35,3.24-23.54-2.91-30.88-16.86-4.83-9.17-6.13-18.92-5.11-29.1a109.17,109.17,0,0,1,15-44.78C65.14,118.87,87.07,118.81,101.25,137.77Z"/>
    <path class="cls-2" d="M236.74,124.55c-17.57,13.71-42.29,8.36-51-10.73a26.39,26.39,0,0,1-2.36-10.48c-.07-16,2.2-31.65,8.36-46.58,5-12.21,16.71-20.32,29.28-20.22,13.45.11,24,7.31,28.81,20.45,8.17,22.55,7.29,44-8.69,63.34a26.61,26.61,0,0,1-2.13,2.25C238.13,123.41,237.19,124.17,236.74,124.55Z"/>
    <path class="cls-2" d="M118.08,51.48a50.24,50.24,0,0,1,7-4.34c9.89-5.27,21.12-3,26.71,6.56a132,132,0,0,1,18.1,58.23c1.09,16.88-9.83,29.83-25.86,33.36-14.58,3.21-30.09-4.74-36.78-19.51-8.87-19.59-8.13-39.71-.9-59.46,2.09-5.68,11.7-14.84,11.7-14.84Z"/>
  </g>
</svg>
